<svg width="1337" height="345" viewBox="0 0 1337 345" fill="none" xmlns="http://www.w3.org/2000/svg">
<path d="M359.769 135.418V172.253H418.223V184.264H359.769V223.501H434.238V235.512H336.547V123.407H434.238V135.418H359.769ZM509.459 226.704C516.719 226.704 523.659 225.476 530.278 223.02C537.004 220.458 543.41 216.347 549.496 210.689L557.504 220.298C551.418 225.956 544.051 230.44 535.403 233.75C526.755 237.06 517.573 238.715 507.857 238.715C497.821 238.715 488.746 237.434 480.632 234.871C472.624 232.309 465.738 228.519 459.972 223.501C454.314 218.483 449.936 212.29 446.84 204.923C443.744 197.556 442.196 189.068 442.196 179.459C442.196 169.85 443.691 161.362 446.68 153.996C449.776 146.629 454.1 140.436 459.652 135.418C465.311 130.4 472.09 126.61 479.991 124.048C487.892 121.485 496.647 120.204 506.256 120.204C515.971 120.204 525.153 121.859 533.801 125.169C542.45 128.478 549.816 132.963 555.902 138.621L547.895 148.23C541.809 142.572 535.403 138.514 528.677 136.059C522.057 133.496 515.117 132.215 507.857 132.215C502.092 132.215 496.7 133.176 491.682 135.098C486.664 136.913 482.34 139.742 478.71 143.586C475.08 147.429 472.197 152.341 470.062 158.32C468.033 164.192 467.019 171.238 467.019 179.459C467.019 187.68 468.033 194.78 470.062 200.759C472.197 206.631 475.133 211.489 478.87 215.333C482.714 219.176 487.198 222.059 492.323 223.981C497.554 225.796 503.266 226.704 509.459 226.704ZM676.021 205.884C676.021 210.475 675.06 214.799 673.138 218.856C671.216 222.807 668.066 226.276 663.689 229.266C659.418 232.149 653.813 234.444 646.873 236.152C640.04 237.861 631.606 238.715 621.57 238.715C615.911 238.715 610.359 238.288 604.914 237.434C599.576 236.579 594.451 235.352 589.54 233.75C584.735 232.149 580.251 230.227 576.087 227.985C572.03 225.636 568.507 223.073 565.517 220.298L573.525 210.689C579.61 215.92 586.71 219.924 594.825 222.7C602.939 225.369 611.854 226.704 621.57 226.704C632.353 226.704 639.987 225.209 644.471 222.219C648.955 219.23 651.197 215.119 651.197 209.888C651.197 205.831 649.436 202.414 645.912 199.638C642.389 196.862 636.41 194.14 627.976 191.471L597.547 181.862C587.511 178.659 579.931 174.602 574.806 169.69C569.681 164.672 567.119 158.32 567.119 150.632C567.119 146.682 568.026 142.892 569.841 139.262C571.763 135.525 574.699 132.269 578.65 129.493C582.6 126.61 587.618 124.368 593.704 122.766C599.896 121.058 607.316 120.204 615.964 120.204C621.196 120.204 626.374 120.631 631.499 121.485C636.731 122.339 641.695 123.567 646.393 125.169C651.197 126.77 655.628 128.745 659.685 131.094C663.849 133.336 667.426 135.845 670.415 138.621L662.408 148.23C656.322 142.999 649.489 139.048 641.909 136.379C634.328 133.603 625.68 132.215 615.964 132.215C607.957 132.215 601.925 133.603 597.868 136.379C593.917 139.155 591.942 142.572 591.942 146.629C591.942 148.871 592.316 150.846 593.063 152.554C593.81 154.156 595.038 155.704 596.746 157.199C598.562 158.587 600.91 159.921 603.793 161.202C606.676 162.377 610.252 163.658 614.523 165.046L644.791 174.655C654.507 177.751 662.141 181.808 667.693 186.826C673.245 191.844 676.021 198.197 676.021 205.884ZM751.247 201.88V235.512H728.025V201.88L675.977 123.407H701.601L739.236 180.26H740.037L777.672 123.407H803.296L751.247 201.88ZM918.591 205.884C918.591 210.475 917.63 214.799 915.708 218.856C913.786 222.807 910.637 226.276 906.259 229.266C901.989 232.149 896.383 234.444 889.444 236.152C882.611 237.861 874.176 238.715 864.14 238.715C858.481 238.715 852.93 238.288 847.484 237.434C842.146 236.579 837.021 235.352 832.11 233.75C827.306 232.149 822.821 230.227 818.658 227.985C814.6 225.636 811.077 223.073 808.088 220.298L816.095 210.689C822.181 215.92 829.281 219.924 837.395 222.7C845.509 225.369 854.424 226.704 864.14 226.704C874.923 226.704 882.557 225.209 887.041 222.219C891.526 219.23 893.768 215.119 893.768 209.888C893.768 205.831 892.006 202.414 888.483 199.638C884.959 196.862 878.981 194.14 870.546 191.471L840.118 181.862C830.082 178.659 822.501 174.602 817.376 169.69C812.252 164.672 809.689 158.32 809.689 150.632C809.689 146.682 810.597 142.892 812.412 139.262C814.333 135.525 817.27 132.269 821.22 129.493C825.17 126.61 830.188 124.368 836.274 122.766C842.466 121.058 849.887 120.204 858.535 120.204C863.766 120.204 868.945 120.631 874.069 121.485C879.301 122.339 884.265 123.567 888.963 125.169C893.768 126.77 898.199 128.745 902.256 131.094C906.42 133.336 909.996 135.845 912.986 138.621L904.978 148.23C898.892 142.999 892.059 139.048 884.479 136.379C876.899 133.603 868.251 132.215 858.535 132.215C850.527 132.215 844.495 133.603 840.438 136.379C836.488 139.155 834.512 142.572 834.512 146.629C834.512 148.871 834.886 150.846 835.633 152.554C836.381 154.156 837.609 155.704 839.317 157.199C841.132 158.587 843.481 159.921 846.363 161.202C849.246 162.377 852.823 163.658 857.093 165.046L887.362 174.655C897.077 177.751 904.711 181.808 910.263 186.826C915.815 191.844 918.591 198.197 918.591 205.884ZM1029.85 135.418H986.611V235.512H963.389V135.418H920.149V123.407H1029.85V135.418ZM1065.9 135.418V172.253H1124.35V184.264H1065.9V223.501H1140.37V235.512H1042.68V123.407H1140.37V135.418H1065.9ZM1232.45 219.497H1234.05L1275.69 123.407H1310.12V235.512H1286.9V145.828H1285.3L1246.86 235.512H1219.63L1181.2 145.828H1179.6V235.512H1156.38V123.407H1190.81L1232.45 219.497Z" fill="#384F85"/>
<path d="M306.97 89.2062L161.471 9L8 89.2062V253.531L127.588 317.554M306.97 89.2062V253.531L161.471 335.694L127.588 317.554M306.97 89.2062L73.7734 222.231V157.675L221.265 79.425L161.471 44.2125L39.8901 108.769V233.969L101.677 271.137L273.087 173.325V233.969L127.588 317.554" stroke="#384F85" stroke-width="15"/>
</svg>
